<?xml version="1.0" encoding="UTF-8" standalone="no"?>
<!-- Generator: Adobe Illustrator 18.0.0, SVG Export Plug-In . SVG Version: 6.00 Build 0)  -->

<svg
   xmlns:dc="http://purl.org/dc/elements/1.1/"
   xmlns:cc="http://creativecommons.org/ns#"
   xmlns:rdf="http://www.w3.org/1999/02/22-rdf-syntax-ns#"
   xmlns:svg="http://www.w3.org/2000/svg"
   xmlns="http://www.w3.org/2000/svg"
   xmlns:sodipodi="http://sodipodi.sourceforge.net/DTD/sodipodi-0.dtd"
   xmlns:inkscape="http://www.inkscape.org/namespaces/inkscape"
   version="1.1"
   id="Слой_1"
   x="0px"
   y="0px"
   viewBox="0 0 100 100"
   enable-background="new 0 0 100 100"
   xml:space="preserve"
   inkscape:version="0.91 r13725"
   sodipodi:docname="001_home.svg"><metadata
     id="metadata15"><rdf:RDF><cc:Work
         rdf:about=""><dc:format>image/svg+xml</dc:format><dc:type
           rdf:resource="http://purl.org/dc/dcmitype/StillImage" /></cc:Work></rdf:RDF></metadata><defs
     id="defs13" /><sodipodi:namedview
     pagecolor="#ffffff"
     bordercolor="#666666"
     borderopacity="1"
     objecttolerance="10"
     gridtolerance="10"
     guidetolerance="10"
     inkscape:pageopacity="0"
     inkscape:pageshadow="2"
     inkscape:window-width="640"
     inkscape:window-height="480"
     id="namedview11"
     showgrid="false"
     showguides="true"
     inkscape:guide-bbox="true"
     inkscape:zoom="2.36"
     inkscape:cx="50"
     inkscape:cy="50"
     inkscape:window-x="55"
     inkscape:window-y="24"
     inkscape:window-maximized="0"
     inkscape:current-layer="Слой_1"><sodipodi:guide
       position="136.44068,-10.59322"
       orientation="0,1"
       id="guide3460" /></sodipodi:namedview><g
     id="g3"
     style="fill:#ffffff"><path
       fill="#030104"
       d="M22.5,82c0,0-0.1,1.7,1.6,1.7c2.1,0,19.1,0,19.1,0l0-15.7c0,0-0.3-2.6,2.2-2.6h7.9c3,0,2.8,2.6,2.8,2.6   l0,15.6c0,0,16.2,0,18.7,0c2.1,0,2-2.1,2-2.1V52.6L50.5,29.2l-28,23.5C22.5,52.6,22.5,82,22.5,82z"
       id="path5"
       style="fill:#ffffff" /><path
       fill="#030104"
       d="M12.2,50.4c0,0,2.4,4.4,7.6,0l31-26.2l29,26c6,4.3,8.2,0,8.2,0L50.7,16.5L12.2,50.4z"
       id="path7"
       style="fill:#ffffff" /><polygon
       fill="#030104"
       points="79.1,24.2 71.6,24.2 71.6,33.2 79.1,39.6  "
       id="polygon9"
       style="fill:#ffffff" /></g></svg>