<?xml version="1.0" encoding="UTF-8" standalone="no"?>
<!-- Generator: Adobe Illustrator 18.0.0, SVG Export Plug-In . SVG Version: 6.00 Build 0)  -->

<svg
   xmlns:dc="http://purl.org/dc/elements/1.1/"
   xmlns:cc="http://creativecommons.org/ns#"
   xmlns:rdf="http://www.w3.org/1999/02/22-rdf-syntax-ns#"
   xmlns:svg="http://www.w3.org/2000/svg"
   xmlns="http://www.w3.org/2000/svg"
   xmlns:sodipodi="http://sodipodi.sourceforge.net/DTD/sodipodi-0.dtd"
   xmlns:inkscape="http://www.inkscape.org/namespaces/inkscape"
   version="1.1"
   id="Слой_1"
   x="0px"
   y="0px"
   viewBox="0 0 100 100"
   enable-background="new 0 0 100 100"
   xml:space="preserve"
   inkscape:version="0.91 r13725"
   sodipodi:docname="002_history.svg"><metadata
     id="metadata38"><rdf:RDF><cc:Work
         rdf:about=""><dc:format>image/svg+xml</dc:format><dc:type
           rdf:resource="http://purl.org/dc/dcmitype/StillImage" /></cc:Work></rdf:RDF></metadata><defs
     id="defs36" /><sodipodi:namedview
     pagecolor="#ffffff"
     bordercolor="#666666"
     borderopacity="1"
     objecttolerance="10"
     gridtolerance="10"
     guidetolerance="10"
     inkscape:pageopacity="0"
     inkscape:pageshadow="2"
     inkscape:window-width="640"
     inkscape:window-height="480"
     id="namedview34"
     showgrid="false"
     inkscape:zoom="2.36"
     inkscape:cx="50"
     inkscape:cy="50"
     inkscape:window-x="55"
     inkscape:window-y="24"
     inkscape:window-maximized="0"
     inkscape:current-layer="Слой_1" /><g
     id="g18"
     style="fill:#ffffff"><g
       id="g20"
       style="fill:#ffffff"><rect
         x="20.2"
         y="40.7"
         width="7.7"
         height="30.5"
         id="rect22"
         style="fill:#ffffff" /><rect
         x="37.8"
         y="40.7"
         width="7.7"
         height="30.5"
         id="rect24"
         style="fill:#ffffff" /><rect
         x="55.4"
         y="40.7"
         width="7.7"
         height="30.5"
         id="rect26"
         style="fill:#ffffff" /><rect
         x="73"
         y="40.7"
         width="7.7"
         height="30.5"
         id="rect28"
         style="fill:#ffffff" /><path
         d="M83.9,30.1h-0.7V30c0-0.6-0.4-1.1-0.9-1.3L50.9,17c-0.3-0.1-0.7-0.1-1,0L18.6,28.7c-0.6,0.2-0.9,0.7-0.9,1.3v0.1H17    c-0.8,0-1.4,0.6-1.4,1.4v4.7c0,0.8,0.6,1.4,1.4,1.4h66.9c0.8,0,1.4-0.6,1.4-1.4v-4.7C85.3,30.8,84.7,30.1,83.9,30.1z"
         id="path30"
         style="fill:#ffffff" /><path
         d="M83.9,74.5H17c-0.8,0-1.4,0.6-1.4,1.4v6.3c0,0.8,0.6,1.4,1.4,1.4h66.9c0.8,0,1.4-0.6,1.4-1.4v-6.3    C85.3,75.2,84.7,74.5,83.9,74.5z"
         id="path32"
         style="fill:#ffffff" /></g></g></svg>