<?xml version="1.0" encoding="UTF-8" standalone="no"?>
<!-- Generator: Adobe Illustrator 18.0.0, SVG Export Plug-In . SVG Version: 6.00 Build 0)  -->

<svg
   xmlns:dc="http://purl.org/dc/elements/1.1/"
   xmlns:cc="http://creativecommons.org/ns#"
   xmlns:rdf="http://www.w3.org/1999/02/22-rdf-syntax-ns#"
   xmlns:svg="http://www.w3.org/2000/svg"
   xmlns="http://www.w3.org/2000/svg"
   xmlns:sodipodi="http://sodipodi.sourceforge.net/DTD/sodipodi-0.dtd"
   xmlns:inkscape="http://www.inkscape.org/namespaces/inkscape"
   version="1.1"
   id="Слой_1"
   x="0px"
   y="0px"
   viewBox="0 0 100 100"
   enable-background="new 0 0 100 100"
   xml:space="preserve"
   inkscape:version="0.91 r13725"
   sodipodi:docname="003_gallery.svg"><metadata
     id="metadata53"><rdf:RDF><cc:Work
         rdf:about=""><dc:format>image/svg+xml</dc:format><dc:type
           rdf:resource="http://purl.org/dc/dcmitype/StillImage" /></cc:Work></rdf:RDF></metadata><defs
     id="defs51" /><sodipodi:namedview
     pagecolor="#ffffff"
     bordercolor="#666666"
     borderopacity="1"
     objecttolerance="10"
     gridtolerance="10"
     guidetolerance="10"
     inkscape:pageopacity="0"
     inkscape:pageshadow="2"
     inkscape:window-width="640"
     inkscape:window-height="480"
     id="namedview49"
     showgrid="false"
     inkscape:zoom="2.36"
     inkscape:cx="50"
     inkscape:cy="50"
     inkscape:window-x="55"
     inkscape:window-y="24"
     inkscape:window-maximized="0"
     inkscape:current-layer="Слой_1" /><g
     id="g41"
     style="fill:#ffffff"><g
       id="g43"
       style="fill:#ffffff"><path
         d="M27.4,61.8V33.1H23c-3.2,0-5.9,2.7-5.9,5.9v38.8c0,3.3,2.6,5.9,5.9,5.9h38.8c3.2,0,5.9-2.6,5.9-5.9v-4.2H39.2    C32.7,73.6,27.4,68.3,27.4,61.8z"
         id="path45"
         style="fill:#ffffff" /><path
         d="M78,17.1H39.2c-3.2,0-5.9,2.6-5.9,5.9v38.8c0,3.3,2.7,5.9,5.9,5.9H78c3.2,0,5.9-2.7,5.9-5.9V23    C83.9,19.7,81.2,17.1,78,17.1z M77.2,58.5c-0.3,0.6-0.9,1-1.6,1H42.3c-0.6,0-1.1-0.3-1.5-0.7c-0.3-0.5-0.5-1.1-0.3-1.6l4.8-15.7    c0.3-1,1.2-1.8,2.3-2c1.1-0.2,2.1,0.3,2.8,1.2l6.7,9.3c0.9,1.3,2.6,1.6,3.9,0.7l6.1-4.2c0.6-0.4,1.4-0.6,2.1-0.4    c0.7,0.1,1.4,0.6,1.8,1.2l6.1,9.4C77.5,57.2,77.5,57.9,77.2,58.5z"
         id="path47"
         style="fill:#ffffff" /></g></g></svg>