<?xml version="1.0" encoding="UTF-8" standalone="no"?>
<!-- Generator: Adobe Illustrator 18.0.0, SVG Export Plug-In . SVG Version: 6.00 Build 0)  -->

<svg
   xmlns:dc="http://purl.org/dc/elements/1.1/"
   xmlns:cc="http://creativecommons.org/ns#"
   xmlns:rdf="http://www.w3.org/1999/02/22-rdf-syntax-ns#"
   xmlns:svg="http://www.w3.org/2000/svg"
   xmlns="http://www.w3.org/2000/svg"
   xmlns:sodipodi="http://sodipodi.sourceforge.net/DTD/sodipodi-0.dtd"
   xmlns:inkscape="http://www.inkscape.org/namespaces/inkscape"
   version="1.1"
   id="Слой_1"
   x="0px"
   y="0px"
   viewBox="0 0 100 100"
   enable-background="new 0 0 100 100"
   xml:space="preserve"
   inkscape:version="0.91 r13725"
   sodipodi:docname="004_video.svg"><metadata
     id="metadata72"><rdf:RDF><cc:Work
         rdf:about=""><dc:format>image/svg+xml</dc:format><dc:type
           rdf:resource="http://purl.org/dc/dcmitype/StillImage" /></cc:Work></rdf:RDF></metadata><defs
     id="defs70" /><sodipodi:namedview
     pagecolor="#ffffff"
     bordercolor="#666666"
     borderopacity="1"
     objecttolerance="10"
     gridtolerance="10"
     guidetolerance="10"
     inkscape:pageopacity="0"
     inkscape:pageshadow="2"
     inkscape:window-width="640"
     inkscape:window-height="480"
     id="namedview68"
     showgrid="false"
     inkscape:zoom="2.36"
     inkscape:cx="50"
     inkscape:cy="50"
     inkscape:window-x="55"
     inkscape:window-y="24"
     inkscape:window-maximized="0"
     inkscape:current-layer="Слой_1" /><g
     id="g56"
     style="fill:#ffffff"><g
       id="g58"
       style="fill:#ffffff"><g
         id="g60"
         style="fill:#ffffff"><path
           d="M71.9,17.6H16.3c-1.6,0-2.9,1.3-2.9,2.9v45.8c0,1.6,1.3,2.9,2.9,2.9h41.6l-3.2-3.7h-7.7v-4.7h4l0,0c-1-1.2-1.7-2.4-2-3.5     H20.4V29.6h47.4v27.7h-6.4c1,1,2,2.1,2.8,2.9c0.6-0.6,1.3-1.2,2.1-1.8c2.7-2.1,5.3-3.4,7.7-3.8c0.2,0,0.5-0.1,0.7-0.1V20.5     C74.8,18.9,73.5,17.6,71.9,17.6z M33.8,60.8h7.5v4.7h-7.5V60.8z M20.6,60.8h7.5v4.7h-7.5V60.8z M28.1,26h-7.5v-4.7h7.5V26z      M41.2,26h-7.5v-4.7h7.5V26z M54.4,26h-7.5v-4.7h7.5V26z M67.6,26h-7.5v-4.7h7.5V26z"
           id="path62"
           style="fill:#ffffff" /><path
           d="M86.9,69.5c-0.7-3.9-3.2-7.5-4.6-9.4c-1.9-2.5-4.4-3.4-7.3-2.9c-2.1,0.4-4.3,1.5-6.7,3.4c-1.7,1.3-2.9,2.6-3.5,3.2     c-1.4-1.2-5.3-5.3-7.3-7.5c-1-1.1-3.5-3.6-5.3-1.9c-2,1.9,0.9,5.1,1,5.2L65,74c0,0.1-0.1,0.1-0.2,0.2c-1.1,0.9-4.4-0.7-5.8-1.6     c-1.2-0.8-3.3-0.8-4.3,0c-0.4,0.3-0.6,0.8-0.6,1.2c0,0.7,0.4,1.4,1.3,2.1c0,0,0,0,0.1,0c1.3,1.1,4.9,3.9,9.6,5.6     c3,1.1,5.9,1.6,8.7,1.4c3.4-0.3,6.7-1.5,9.5-3.8C86.4,76.7,87.6,73.4,86.9,69.5z"
           id="path64"
           style="fill:#ffffff" /><path
           d="M41.2,33.6c-0.5-0.4-1.1-0.5-1.6-0.2c-0.5,0.2-0.9,0.8-0.9,1.4v16c0,0.6,0.3,1.1,0.9,1.4c0.2,0.1,0.4,0.1,0.6,0.1     c0.3,0,0.7-0.1,1-0.4l9.5-8c0.3-0.3,0.5-0.7,0.5-1.2s-0.2-0.9-0.5-1.2L41.2,33.6z"
           id="path66"
           style="fill:#ffffff" /></g></g></g></svg>