<?xml version="1.0" encoding="UTF-8" standalone="no"?>
<!-- Generator: Adobe Illustrator 18.0.0, SVG Export Plug-In . SVG Version: 6.00 Build 0)  -->

<svg
   xmlns:dc="http://purl.org/dc/elements/1.1/"
   xmlns:cc="http://creativecommons.org/ns#"
   xmlns:rdf="http://www.w3.org/1999/02/22-rdf-syntax-ns#"
   xmlns:svg="http://www.w3.org/2000/svg"
   xmlns="http://www.w3.org/2000/svg"
   xmlns:sodipodi="http://sodipodi.sourceforge.net/DTD/sodipodi-0.dtd"
   xmlns:inkscape="http://www.inkscape.org/namespaces/inkscape"
   version="1.1"
   id="Слой_1"
   x="0px"
   y="0px"
   viewBox="0 0 100 100"
   enable-background="new 0 0 100 100"
   xml:space="preserve"
   inkscape:version="0.91 r13725"
   sodipodi:docname="006_360.svg"><metadata
     id="metadata100"><rdf:RDF><cc:Work
         rdf:about=""><dc:format>image/svg+xml</dc:format><dc:type
           rdf:resource="http://purl.org/dc/dcmitype/StillImage" /></cc:Work></rdf:RDF></metadata><defs
     id="defs98" /><sodipodi:namedview
     pagecolor="#ffffff"
     bordercolor="#666666"
     borderopacity="1"
     objecttolerance="10"
     gridtolerance="10"
     guidetolerance="10"
     inkscape:pageopacity="0"
     inkscape:pageshadow="2"
     inkscape:window-width="640"
     inkscape:window-height="480"
     id="namedview96"
     showgrid="false"
     inkscape:zoom="2.36"
     inkscape:cx="50"
     inkscape:cy="50"
     inkscape:window-x="55"
     inkscape:window-y="24"
     inkscape:window-maximized="0"
     inkscape:current-layer="Слой_1" /><g
     id="g88"
     style="fill:#ffffff"><g
       id="g90"
       style="fill:#ffffff"><path
         d="M36.5,35.5c6.9-6.9,17.3-7.8,25.3-3c-2.7,2.7-5.8,5.8-5.8,5.8c-2.2,2.6,0.3,4.1,1.5,4.1l14.5,0c0.8,0,1.4,0,1.4,0    s0.6,0,1.4,0h2.8c0.8,0,1.4-0.6,1.4-1.4V21.1c0.1-1.8-1.9-3.6-4-1.6c0,0-3.4,3.3-5.8,5.7c-12.1-8.8-29.1-7.8-39.9,3.1    c-6.4,6.4-9.3,14.8-9,23.1h10.3C30.2,45.7,32.2,39.9,36.5,35.5z"
         id="path92"
         style="fill:#ffffff" /><path
         d="M70.8,47.9c0.4,5.7-1.6,11.5-5.9,15.8c-6.9,6.9-17.3,7.8-25.3,3c2.7-2.7,5.8-5.8,5.8-5.8c2.2-2.6-0.3-4.1-1.5-4.1l-14.5,0    c-0.8,0-1.4,0-1.4,0s-0.6,0-1.4,0h-2.8c-0.8,0-1.4,0.6-1.4,1.4v19.9c-0.1,1.8,1.9,3.6,4,1.6c0,0,3.4-3.3,5.8-5.7    c12.1,8.8,29.1,7.8,40-3.1c6.4-6.4,9.3-14.8,9-23.1L70.8,47.9L70.8,47.9z"
         id="path94"
         style="fill:#ffffff" /></g></g></svg>