<?xml version="1.0" encoding="UTF-8" standalone="no"?>
<!-- Generator: Adobe Illustrator 18.0.0, SVG Export Plug-In . SVG Version: 6.00 Build 0)  -->

<svg
   xmlns:dc="http://purl.org/dc/elements/1.1/"
   xmlns:cc="http://creativecommons.org/ns#"
   xmlns:rdf="http://www.w3.org/1999/02/22-rdf-syntax-ns#"
   xmlns:svg="http://www.w3.org/2000/svg"
   xmlns="http://www.w3.org/2000/svg"
   xmlns:sodipodi="http://sodipodi.sourceforge.net/DTD/sodipodi-0.dtd"
   xmlns:inkscape="http://www.inkscape.org/namespaces/inkscape"
   version="1.1"
   id="Слой_1"
   x="0px"
   y="0px"
   viewBox="0 0 100 100"
   enable-background="new 0 0 100 100"
   xml:space="preserve"
   inkscape:version="0.91 r13725"
   sodipodi:docname="007_select.svg"><metadata
     id="metadata111"><rdf:RDF><cc:Work
         rdf:about=""><dc:format>image/svg+xml</dc:format><dc:type
           rdf:resource="http://purl.org/dc/dcmitype/StillImage" /></cc:Work></rdf:RDF></metadata><defs
     id="defs109" /><sodipodi:namedview
     pagecolor="#ffffff"
     bordercolor="#666666"
     borderopacity="1"
     objecttolerance="10"
     gridtolerance="10"
     guidetolerance="10"
     inkscape:pageopacity="0"
     inkscape:pageshadow="2"
     inkscape:window-width="640"
     inkscape:window-height="480"
     id="namedview107"
     showgrid="false"
     inkscape:zoom="2.36"
     inkscape:cx="50"
     inkscape:cy="50"
     inkscape:window-x="407"
     inkscape:window-y="101"
     inkscape:window-maximized="0"
     inkscape:current-layer="Слой_1" /><g
     id="g103"
     style="fill:#ffffff"><path
       d="M75.2,47.8l-23.7-6.4l0-18.8c0-0.9-0.3-1.7-1-2.3c-0.6-0.6-1.5-1-2.3-1h-3.2c-0.9,0-1.7,0.3-2.3,1c-0.6,0.6-1,1.5-1,2.3   l0,28.9l-5.1-3.6c-0.7-0.5-1.6-0.7-2.5-0.6c-0.9,0.2-1.6,0.7-2.1,1.4l-1.6,2.4c-0.8,1.1-0.7,2.6,0,3.7l11.3,16.5v9.5   c0,1.8,1.5,3.3,3.3,3.3l23.7,0c0,0,0,0,0,0c1.8,0,3.3-1.5,3.3-3.3l0-2l5-8.7c0.3-0.5,0.4-1.1,0.4-1.6l0-17.5   C77.4,49.5,76.5,48.3,75.2,47.8z"
       id="path105"
       style="fill:#ffffff" /></g></svg>