<?xml version="1.0" encoding="UTF-8" standalone="no"?>
<!-- Generator: Adobe Illustrator 18.0.0, SVG Export Plug-In . SVG Version: 6.00 Build 0)  -->

<svg
   xmlns:dc="http://purl.org/dc/elements/1.1/"
   xmlns:cc="http://creativecommons.org/ns#"
   xmlns:rdf="http://www.w3.org/1999/02/22-rdf-syntax-ns#"
   xmlns:svg="http://www.w3.org/2000/svg"
   xmlns="http://www.w3.org/2000/svg"
   xmlns:sodipodi="http://sodipodi.sourceforge.net/DTD/sodipodi-0.dtd"
   xmlns:inkscape="http://www.inkscape.org/namespaces/inkscape"
   version="1.1"
   id="Слой_1"
   x="0px"
   y="0px"
   viewBox="0 0 100 100"
   enable-background="new 0 0 100 100"
   xml:space="preserve"
   inkscape:version="0.91 r13725"
   sodipodi:docname="008_contacts.svg"><metadata
     id="metadata132"><rdf:RDF><cc:Work
         rdf:about=""><dc:format>image/svg+xml</dc:format><dc:type
           rdf:resource="http://purl.org/dc/dcmitype/StillImage" /></cc:Work></rdf:RDF></metadata><defs
     id="defs130" /><sodipodi:namedview
     pagecolor="#ffffff"
     bordercolor="#666666"
     borderopacity="1"
     objecttolerance="10"
     gridtolerance="10"
     guidetolerance="10"
     inkscape:pageopacity="0"
     inkscape:pageshadow="2"
     inkscape:window-width="455"
     inkscape:window-height="379"
     id="namedview128"
     showgrid="false"
     inkscape:zoom="2.36"
     inkscape:cx="50"
     inkscape:cy="50"
     inkscape:window-x="801"
     inkscape:window-y="135"
     inkscape:window-maximized="0"
     inkscape:current-layer="Слой_1" /><g
     id="g114"
     style="fill:#ffffff"><g
       id="g116"
       style="fill:#ffffff"><path
         d="M49.8,55.8h-1.9c-1,0-1.8-0.8-1.8-1.8c0-0.4,0.1-0.7,0.4-1c1.1-1.1,2.1-2.6,2.8-4.2c0.1,0.1,0.3,0.2,0.5,0.2    c1.1,0,2.4-2.4,2.4-4.1s-0.2-3-1.2-3c-0.1,0-0.3,0-0.4,0.1c-0.1-4.5-1.2-10-8-10c-7.1,0-7.9,5.5-8,10c-0.1,0-0.2,0-0.3,0    c-1.1,0-1.2,1.3-1.2,3c0,1.6,1.3,4.1,2.4,4.1c0.1,0,0.3,0,0.4-0.1c0.7,1.6,1.6,3,2.7,4.1c0.3,0.3,0.4,0.6,0.4,1    c0,1-0.8,1.8-1.8,1.8h-1.9c-4.2,0-7.5,3.4-7.5,7.5v2.1c0,1.3,1.1,2.4,2.4,2.4h25.1c1.3,0,2.4-1.1,2.4-2.4v-2.1    C57.3,59.2,53.9,55.8,49.8,55.8z"
         id="path118"
         style="fill:#ffffff" /><path
         d="M72.3,35.2H51.2c0.6,1.3,1,3,1.2,5c0.4,0.3,0.8,0.7,1.1,1.3h18.8c1,0,1.8-0.8,1.8-1.8v-2.8C74,36,73.3,35.2,72.3,35.2z"
         id="path120"
         style="fill:#ffffff" /><path
         d="M72.3,46.7H53.9c-0.5,1.9-1.7,3.8-3.4,4.4c0,0.1-0.1,0.2-0.2,0.3V53h21.9c1,0,1.8-0.8,1.8-1.8v-2.8    C74,47.5,73.3,46.7,72.3,46.7z"
         id="path122"
         style="fill:#ffffff" /><path
         d="M72.3,58.2H58c0.9,1.5,1.5,3.3,1.5,5.2v1.2h12.8c1,0,1.8-0.8,1.8-1.8V60C74,59,73.3,58.2,72.3,58.2z"
         id="path124"
         style="fill:#ffffff" /><path
         d="M79.8,17.6H21.6c-6,0-10.8,4.8-10.8,10.8v42.9c0,6,4.8,10.8,10.8,10.8h58.2c6,0,10.8-4.8,10.8-10.8V28.4    C90.7,22.5,85.8,17.6,79.8,17.6z M85.5,71.4c0,3.1-2.6,5.7-5.7,5.7H21.6c-3.1,0-5.7-2.6-5.7-5.7V28.4c0-3.1,2.6-5.7,5.7-5.7h58.2    c3.1,0,5.7,2.6,5.7,5.7C85.5,28.4,85.5,71.4,85.5,71.4z"
         id="path126"
         style="fill:#ffffff" /></g></g></svg>